<?xml version="1.0" encoding="utf-8" standalone="no"?>
<!DOCTYPE svg PUBLIC "-//W3C//DTD SVG 1.1//EN"
  "http://www.w3.org/Graphics/SVG/1.1/DTD/svg11.dtd">
<svg xmlns:xlink="http://www.w3.org/1999/xlink" width="784.243437pt" height="301.836562pt" viewBox="0 0 784.243437 301.836562" xmlns="http://www.w3.org/2000/svg" version="1.1">
 <metadata>
  <rdf:RDF xmlns:dc="http://purl.org/dc/elements/1.1/" xmlns:cc="http://creativecommons.org/ns#" xmlns:rdf="http://www.w3.org/1999/02/22-rdf-syntax-ns#">
   <cc:Work>
    <dc:type rdf:resource="http://purl.org/dc/dcmitype/StillImage"/>
    <dc:format>image/svg+xml</dc:format>
    <dc:creator>
     <cc:Agent>
      <dc:title>Matplotlib v3.11.2, https://matplotlib.org/</dc:title>
     </cc:Agent>
    </dc:creator>
   </cc:Work>
  </rdf:RDF>
 </metadata>
 <defs>
  <style type="text/css">*{stroke-linejoin: round; stroke-linecap: butt}</style>
 </defs>
 <g id="figure_1">
  <g id="patch_1">
   <path d="M 0 301.836562 
L 784.243437 301.836562 
L 784.243437 0 
L 0 0 
z
" style="fill: #ffffff"/>
  </g>
  <g id="axes_1">
   <g id="patch_2">
    <path d="M 40.925781 263.635781 
L 383.203438 263.635781 
L 383.203438 22.318125 
L 40.925781 22.318125 
z
" style="fill: #ffffff"/>
   </g>
   <g id="matplotlib.axis_1">
    <g id="xtick_1">
     <g id="line2d_1">
      <defs>
       <path id="m71f0cfe1a6" d="M 0 0 
L 0 3.5 
" style="stroke: #000000; stroke-width: 0.8"/>
      </defs>
      <g>
       <use xlink:href="#m71f0cfe1a6" x="56.483857" y="263.635781" style="stroke: #000000; stroke-width: 0.8"/>
      </g>
     </g>
     <g id="text_1">
      <text style="font-size: 10px; font-family: 'DejaVu Sans', 'Bitstream Vera Sans', 'Computer Modern Sans Serif', 'Lucida Grande', 'Verdana', 'Geneva', 'Lucid', 'Arial', 'Helvetica', 'Avant Garde', sans-serif; text-anchor: middle" x="56.483857" y="278.233437" transform="rotate(-0 56.483857 278.233437)">B0</text>
     </g>
    </g>
    <g id="xtick_2">
     <g id="line2d_2">
      <g>
       <use xlink:href="#m71f0cfe1a6" x="118.716158" y="263.635781" style="stroke: #000000; stroke-width: 0.8"/>
      </g>
     </g>
     <g id="text_2">
      <text style="font-size: 10px; font-family: 'DejaVu Sans', 'Bitstream Vera Sans', 'Computer Modern Sans Serif', 'Lucida Grande', 'Verdana', 'Geneva', 'Lucid', 'Arial', 'Helvetica', 'Avant Garde', sans-serif; text-anchor: middle" x="118.716158" y="278.233437" transform="rotate(-0 118.716158 278.233437)">B1</text>
     </g>
    </g>
    <g id="xtick_3">
     <g id="line2d_3">
      <g>
       <use xlink:href="#m71f0cfe1a6" x="180.948459" y="263.635781" style="stroke: #000000; stroke-width: 0.8"/>
      </g>
     </g>
     <g id="text_3">
      <text style="font-size: 10px; font-family: 'DejaVu Sans', 'Bitstream Vera Sans', 'Computer Modern Sans Serif', 'Lucida Grande', 'Verdana', 'Geneva', 'Lucid', 'Arial', 'Helvetica', 'Avant Garde', sans-serif; text-anchor: middle" x="180.948459" y="278.233437" transform="rotate(-0 180.948459 278.233437)">B2</text>
     </g>
    </g>
    <g id="xtick_4">
     <g id="line2d_4">
      <g>
       <use xlink:href="#m71f0cfe1a6" x="243.18076" y="263.635781" style="stroke: #000000; stroke-width: 0.8"/>
      </g>
     </g>
     <g id="text_4">
      <text style="font-size: 10px; font-family: 'DejaVu Sans', 'Bitstream Vera Sans', 'Computer Modern Sans Serif', 'Lucida Grande', 'Verdana', 'Geneva', 'Lucid', 'Arial', 'Helvetica', 'Avant Garde', sans-serif; text-anchor: middle" x="243.18076" y="278.233437" transform="rotate(-0 243.18076 278.233437)">B3</text>
     </g>
    </g>
    <g id="xtick_5">
     <g id="line2d_5">
      <g>
       <use xlink:href="#m71f0cfe1a6" x="305.413061" y="263.635781" style="stroke: #000000; stroke-width: 0.8"/>
      </g>
     </g>
     <g id="text_5">
      <text style="font-size: 10px; font-family: 'DejaVu Sans', 'Bitstream Vera Sans', 'Computer Modern Sans Serif', 'Lucida Grande', 'Verdana', 'Geneva', 'Lucid', 'Arial', 'Helvetica', 'Avant Garde', sans-serif; text-anchor: middle" x="305.413061" y="278.233437" transform="rotate(-0 305.413061 278.233437)">C</text>
     </g>
    </g>
    <g id="xtick_6">
     <g id="line2d_6">
      <g>
       <use xlink:href="#m71f0cfe1a6" x="367.645362" y="263.635781" style="stroke: #000000; stroke-width: 0.8"/>
      </g>
     </g>
     <g id="text_6">
      <text style="font-size: 10px; font-family: 'DejaVu Sans', 'Bitstream Vera Sans', 'Computer Modern Sans Serif', 'Lucida Grande', 'Verdana', 'Geneva', 'Lucid', 'Arial', 'Helvetica', 'Avant Garde', sans-serif; text-anchor: middle" x="367.645362" y="278.233437" transform="rotate(-0 367.645362 278.233437)">P</text>
     </g>
    </g>
   </g>
   <g id="matplotlib.axis_2">
    <g id="ytick_1">
     <g id="line2d_7">
      <path d="M 40.925781 259.830706 
L 383.203438 259.830706 
" clip-path="url(#p76b1b1481e)" style="fill: none; stroke: #b0b0b0; stroke-opacity: 0.15; stroke-width: 0.8; stroke-linecap: square"/>
     </g>
     <g id="line2d_8">
      <defs>
       <path id="m68b55c4d21" d="M 0 0 
L -3.5 0 
" style="stroke: #000000; stroke-width: 0.8"/>
      </defs>
      <g>
       <use xlink:href="#m68b55c4d21" x="40.925781" y="259.830706" style="stroke: #000000; stroke-width: 0.8"/>
      </g>
     </g>
     <g id="text_7">
      <text style="font-size: 10px; font-family: 'DejaVu Sans', 'Bitstream Vera Sans', 'Computer Modern Sans Serif', 'Lucida Grande', 'Verdana', 'Geneva', 'Lucid', 'Arial', 'Helvetica', 'Avant Garde', sans-serif; text-anchor: end" x="33.925781" y="263.629535" transform="rotate(-0 33.925781 263.629535)">62</text>
     </g>
    </g>
    <g id="ytick_2">
     <g id="line2d_9">
      <path d="M 40.925781 220.554005 
L 383.203438 220.554005 
" clip-path="url(#p76b1b1481e)" style="fill: none; stroke: #b0b0b0; stroke-opacity: 0.15; stroke-width: 0.8; stroke-linecap: square"/>
     </g>
     <g id="line2d_10">
      <g>
       <use xlink:href="#m68b55c4d21" x="40.925781" y="220.554005" style="stroke: #000000; stroke-width: 0.8"/>
      </g>
     </g>
     <g id="text_8">
      <text style="font-size: 10px; font-family: 'DejaVu Sans', 'Bitstream Vera Sans', 'Computer Modern Sans Serif', 'Lucida Grande', 'Verdana', 'Geneva', 'Lucid', 'Arial', 'Helvetica', 'Avant Garde', sans-serif; text-anchor: end" x="33.925781" y="224.352833" transform="rotate(-0 33.925781 224.352833)">64</text>
     </g>
    </g>
    <g id="ytick_3">
     <g id="line2d_11">
      <path d="M 40.925781 181.277304 
L 383.203438 181.277304 
" clip-path="url(#p76b1b1481e)" style="fill: none; stroke: #b0b0b0; stroke-opacity: 0.15; stroke-width: 0.8; stroke-linecap: square"/>
     </g>
     <g id="line2d_12">
      <g>
       <use xlink:href="#m68b55c4d21" x="40.925781" y="181.277304" style="stroke: #000000; stroke-width: 0.8"/>
      </g>
     </g>
     <g id="text_9">
      <text style="font-size: 10px; font-family: 'DejaVu Sans', 'Bitstream Vera Sans', 'Computer Modern Sans Serif', 'Lucida Grande', 'Verdana', 'Geneva', 'Lucid', 'Arial', 'Helvetica', 'Avant Garde', sans-serif; text-anchor: end" x="33.925781" y="185.076132" transform="rotate(-0 33.925781 185.076132)">66</text>
     </g>
    </g>
    <g id="ytick_4">
     <g id="line2d_13">
      <path d="M 40.925781 142.000603 
L 383.203438 142.000603 
" clip-path="url(#p76b1b1481e)" style="fill: none; stroke: #b0b0b0; stroke-opacity: 0.15; stroke-width: 0.8; stroke-linecap: square"/>
     </g>
     <g id="line2d_14">
      <g>
       <use xlink:href="#m68b55c4d21" x="40.925781" y="142.000603" style="stroke: #000000; stroke-width: 0.8"/>
      </g>
     </g>
     <g id="text_10">
      <text style="font-size: 10px; font-family: 'DejaVu Sans', 'Bitstream Vera Sans', 'Computer Modern Sans Serif', 'Lucida Grande', 'Verdana', 'Geneva', 'Lucid', 'Arial', 'Helvetica', 'Avant Garde', sans-serif; text-anchor: end" x="33.925781" y="145.799431" transform="rotate(-0 33.925781 145.799431)">68</text>
     </g>
    </g>
    <g id="ytick_5">
     <g id="line2d_15">
      <path d="M 40.925781 102.723902 
L 383.203438 102.723902 
" clip-path="url(#p76b1b1481e)" style="fill: none; stroke: #b0b0b0; stroke-opacity: 0.15; stroke-width: 0.8; stroke-linecap: square"/>
     </g>
     <g id="line2d_16">
      <g>
       <use xlink:href="#m68b55c4d21" x="40.925781" y="102.723902" style="stroke: #000000; stroke-width: 0.8"/>
      </g>
     </g>
     <g id="text_11">
      <text style="font-size: 10px; font-family: 'DejaVu Sans', 'Bitstream Vera Sans', 'Computer Modern Sans Serif', 'Lucida Grande', 'Verdana', 'Geneva', 'Lucid', 'Arial', 'Helvetica', 'Avant Garde', sans-serif; text-anchor: end" x="33.925781" y="106.52273" transform="rotate(-0 33.925781 106.52273)">70</text>
     </g>
    </g>
    <g id="ytick_6">
     <g id="line2d_17">
      <path d="M 40.925781 63.4472 
L 383.203438 63.4472 
" clip-path="url(#p76b1b1481e)" style="fill: none; stroke: #b0b0b0; stroke-opacity: 0.15; stroke-width: 0.8; stroke-linecap: square"/>
     </g>
     <g id="line2d_18">
      <g>
       <use xlink:href="#m68b55c4d21" x="40.925781" y="63.4472" style="stroke: #000000; stroke-width: 0.8"/>
      </g>
     </g>
     <g id="text_12">
      <text style="font-size: 10px; font-family: 'DejaVu Sans', 'Bitstream Vera Sans', 'Computer Modern Sans Serif', 'Lucida Grande', 'Verdana', 'Geneva', 'Lucid', 'Arial', 'Helvetica', 'Avant Garde', sans-serif; text-anchor: end" x="33.925781" y="67.246028" transform="rotate(-0 33.925781 67.246028)">72</text>
     </g>
    </g>
    <g id="ytick_7">
     <g id="line2d_19">
      <path d="M 40.925781 24.170499 
L 383.203438 24.170499 
" clip-path="url(#p76b1b1481e)" style="fill: none; stroke: #b0b0b0; stroke-opacity: 0.15; stroke-width: 0.8; stroke-linecap: square"/>
     </g>
     <g id="line2d_20">
      <g>
       <use xlink:href="#m68b55c4d21" x="40.925781" y="24.170499" style="stroke: #000000; stroke-width: 0.8"/>
      </g>
     </g>
     <g id="text_13">
      <text style="font-size: 10px; font-family: 'DejaVu Sans', 'Bitstream Vera Sans', 'Computer Modern Sans Serif', 'Lucida Grande', 'Verdana', 'Geneva', 'Lucid', 'Arial', 'Helvetica', 'Avant Garde', sans-serif; text-anchor: end" x="33.925781" y="27.969327" transform="rotate(-0 33.925781 27.969327)">74</text>
     </g>
    </g>
    <g id="text_14">
     <text style="font-size: 10px; font-family: 'DejaVu Sans', 'Bitstream Vera Sans', 'Computer Modern Sans Serif', 'Lucida Grande', 'Verdana', 'Geneva', 'Lucid', 'Arial', 'Helvetica', 'Avant Garde', sans-serif; text-anchor: middle" x="14.798438" y="142.976953" transform="rotate(-90 14.798438 142.976953)">Historical macro AP (%)</text>
    </g>
   </g>
   <g id="line2d_21">
    <path d="M 56.483857 142.09183 
L 118.716158 81.156696 
L 180.948459 91.789614 
L 243.18076 41.703586 
L 305.413061 55.121595 
L 367.645362 251.391811 
" clip-path="url(#p76b1b1481e)" style="fill: none; stroke: #1f77b4; stroke-width: 1.5; stroke-linecap: square"/>
    <defs>
     <path id="mb037710911" d="M 0 3 
C 0.795609 3 1.55874 2.683901 2.12132 2.12132 
C 2.683901 1.55874 3 0.795609 3 0 
C 3 -0.795609 2.683901 -1.55874 2.12132 -2.12132 
C 1.55874 -2.683901 0.795609 -3 0 -3 
C -0.795609 -3 -1.55874 -2.683901 -2.12132 -2.12132 
C -2.683901 -1.55874 -3 -0.795609 -3 0 
C -3 0.795609 -2.683901 1.55874 -2.12132 2.12132 
C -1.55874 2.683901 -0.795609 3 0 3 
z
" style="stroke: #1f77b4"/>
    </defs>
    <g clip-path="url(#p76b1b1481e)">
     <use xlink:href="#mb037710911" x="56.483857" y="142.09183" style="fill: #1f77b4; stroke: #1f77b4"/>
     <use xlink:href="#mb037710911" x="118.716158" y="81.156696" style="fill: #1f77b4; stroke: #1f77b4"/>
     <use xlink:href="#mb037710911" x="180.948459" y="91.789614" style="fill: #1f77b4; stroke: #1f77b4"/>
     <use xlink:href="#mb037710911" x="243.18076" y="41.703586" style="fill: #1f77b4; stroke: #1f77b4"/>
     <use xlink:href="#mb037710911" x="305.413061" y="55.121595" style="fill: #1f77b4; stroke: #1f77b4"/>
     <use xlink:href="#mb037710911" x="367.645362" y="251.391811" style="fill: #1f77b4; stroke: #1f77b4"/>
    </g>
   </g>
   <g id="line2d_22">
    <path d="M 56.483857 133.689292 
L 118.716158 67.777626 
L 180.948459 86.485477 
L 243.18076 33.287109 
L 305.413061 55.478193 
L 367.645362 250.263656 
" clip-path="url(#p76b1b1481e)" style="fill: none; stroke: #ff7f0e; stroke-width: 1.5; stroke-linecap: square"/>
    <defs>
     <path id="m6bbdc0390f" d="M 0 3 
C 0.795609 3 1.55874 2.683901 2.12132 2.12132 
C 2.683901 1.55874 3 0.795609 3 0 
C 3 -0.795609 2.683901 -1.55874 2.12132 -2.12132 
C 1.55874 -2.683901 0.795609 -3 0 -3 
C -0.795609 -3 -1.55874 -2.683901 -2.12132 -2.12132 
C -2.683901 -1.55874 -3 -0.795609 -3 0 
C -3 0.795609 -2.683901 1.55874 -2.12132 2.12132 
C -1.55874 2.683901 -0.795609 3 0 3 
z
" style="stroke: #ff7f0e"/>
    </defs>
    <g clip-path="url(#p76b1b1481e)">
     <use xlink:href="#m6bbdc0390f" x="56.483857" y="133.689292" style="fill: #ff7f0e; stroke: #ff7f0e"/>
     <use xlink:href="#m6bbdc0390f" x="118.716158" y="67.777626" style="fill: #ff7f0e; stroke: #ff7f0e"/>
     <use xlink:href="#m6bbdc0390f" x="180.948459" y="86.485477" style="fill: #ff7f0e; stroke: #ff7f0e"/>
     <use xlink:href="#m6bbdc0390f" x="243.18076" y="33.287109" style="fill: #ff7f0e; stroke: #ff7f0e"/>
     <use xlink:href="#m6bbdc0390f" x="305.413061" y="55.478193" style="fill: #ff7f0e; stroke: #ff7f0e"/>
     <use xlink:href="#m6bbdc0390f" x="367.645362" y="250.263656" style="fill: #ff7f0e; stroke: #ff7f0e"/>
    </g>
   </g>
   <g id="line2d_23">
    <path d="M 56.483857 130.47218 
L 118.716158 74.128582 
L 180.948459 89.17733 
L 243.18076 39.149216 
L 305.413061 52.490137 
L 367.645362 252.666797 
" clip-path="url(#p76b1b1481e)" style="fill: none; stroke: #2ca02c; stroke-width: 1.5; stroke-linecap: square"/>
    <defs>
     <path id="m78904e1013" d="M 0 3 
C 0.795609 3 1.55874 2.683901 2.12132 2.12132 
C 2.683901 1.55874 3 0.795609 3 0 
C 3 -0.795609 2.683901 -1.55874 2.12132 -2.12132 
C 1.55874 -2.683901 0.795609 -3 0 -3 
C -0.795609 -3 -1.55874 -2.683901 -2.12132 -2.12132 
C -2.683901 -1.55874 -3 -0.795609 -3 0 
C -3 0.795609 -2.683901 1.55874 -2.12132 2.12132 
C -1.55874 2.683901 -0.795609 3 0 3 
z
" style="stroke: #2ca02c"/>
    </defs>
    <g clip-path="url(#p76b1b1481e)">
     <use xlink:href="#m78904e1013" x="56.483857" y="130.47218" style="fill: #2ca02c; stroke: #2ca02c"/>
     <use xlink:href="#m78904e1013" x="118.716158" y="74.128582" style="fill: #2ca02c; stroke: #2ca02c"/>
     <use xlink:href="#m78904e1013" x="180.948459" y="89.17733" style="fill: #2ca02c; stroke: #2ca02c"/>
     <use xlink:href="#m78904e1013" x="243.18076" y="39.149216" style="fill: #2ca02c; stroke: #2ca02c"/>
     <use xlink:href="#m78904e1013" x="305.413061" y="52.490137" style="fill: #2ca02c; stroke: #2ca02c"/>
     <use xlink:href="#m78904e1013" x="367.645362" y="252.666797" style="fill: #2ca02c; stroke: #2ca02c"/>
    </g>
   </g>
   <g id="patch_3">
    <path d="M 40.925781 263.635781 
L 40.925781 22.318125 
" style="fill: none; stroke: #000000; stroke-width: 0.8; stroke-linejoin: miter; stroke-linecap: square"/>
   </g>
   <g id="patch_4">
    <path d="M 40.925781 263.635781 
L 383.203438 263.635781 
" style="fill: none; stroke: #000000; stroke-width: 0.8; stroke-linejoin: miter; stroke-linecap: square"/>
   </g>
   <g id="text_15">
    <text style="font-size: 12px; font-family: 'DejaVu Sans', 'Bitstream Vera Sans', 'Computer Modern Sans Serif', 'Lucida Grande', 'Verdana', 'Geneva', 'Lucid', 'Arial', 'Helvetica', 'Avant Garde', sans-serif; text-anchor: middle" x="212.064609" y="16.318125" transform="rotate(-0 212.064609 16.318125)">Unified appearance and process scores</text>
   </g>
   <g id="legend_1">
    <g id="line2d_24">
     <path d="M 49.925781 218.731875 
L 59.925781 218.731875 
L 69.925781 218.731875 
" style="fill: none; stroke: #1f77b4; stroke-width: 1.5; stroke-linecap: square"/>
     <g>
      <use xlink:href="#mb037710911" x="59.925781" y="218.731875" style="fill: #1f77b4; stroke: #1f77b4"/>
     </g>
    </g>
    <g id="text_16">
     <text style="font-size: 10px; font-family: 'DejaVu Sans', 'Bitstream Vera Sans', 'Computer Modern Sans Serif', 'Lucida Grande', 'Verdana', 'Geneva', 'Lucid', 'Arial', 'Helvetica', 'Avant Garde', sans-serif; text-anchor: start" x="77.925781" y="222.231875" transform="rotate(-0 77.925781 222.231875)">Seed 42</text>
    </g>
    <g id="line2d_25">
     <path d="M 49.925781 233.732656 
L 59.925781 233.732656 
L 69.925781 233.732656 
" style="fill: none; stroke: #ff7f0e; stroke-width: 1.5; stroke-linecap: square"/>
     <g>
      <use xlink:href="#m6bbdc0390f" x="59.925781" y="233.732656" style="fill: #ff7f0e; stroke: #ff7f0e"/>
     </g>
    </g>
    <g id="text_17">
     <text style="font-size: 10px; font-family: 'DejaVu Sans', 'Bitstream Vera Sans', 'Computer Modern Sans Serif', 'Lucida Grande', 'Verdana', 'Geneva', 'Lucid', 'Arial', 'Helvetica', 'Avant Garde', sans-serif; text-anchor: start" x="77.925781" y="237.232656" transform="rotate(-0 77.925781 237.232656)">Seed 43</text>
    </g>
    <g id="line2d_26">
     <path d="M 49.925781 248.733437 
L 59.925781 248.733437 
L 69.925781 248.733437 
" style="fill: none; stroke: #2ca02c; stroke-width: 1.5; stroke-linecap: square"/>
     <g>
      <use xlink:href="#m78904e1013" x="59.925781" y="248.733437" style="fill: #2ca02c; stroke: #2ca02c"/>
     </g>
    </g>
    <g id="text_18">
     <text style="font-size: 10px; font-family: 'DejaVu Sans', 'Bitstream Vera Sans', 'Computer Modern Sans Serif', 'Lucida Grande', 'Verdana', 'Geneva', 'Lucid', 'Arial', 'Helvetica', 'Avant Garde', sans-serif; text-anchor: start" x="77.925781" y="252.233437" transform="rotate(-0 77.925781 252.233437)">Seed 44</text>
    </g>
   </g>
  </g>
  <g id="axes_2">
   <g id="patch_5">
    <path d="M 434.765781 263.635781 
L 777.043437 263.635781 
L 777.043437 22.318125 
L 434.765781 22.318125 
z
" style="fill: #ffffff"/>
   </g>
   <g id="PathCollection_1">
    <defs>
     <path id="m09071d3312" d="M 0 4.031129 
C 1.069068 4.031129 2.094493 3.606384 2.850439 2.850439 
C 3.606384 2.094493 4.031129 1.069068 4.031129 0 
C 4.031129 -1.069068 3.606384 -2.094493 2.850439 -2.850439 
C 2.094493 -3.606384 1.069068 -4.031129 0 -4.031129 
C -1.069068 -4.031129 -2.094493 -3.606384 -2.850439 -2.850439 
C -3.606384 -2.094493 -4.031129 -1.069068 -4.031129 0 
C -4.031129 1.069068 -3.606384 2.094493 -2.850439 2.850439 
C -2.094493 3.606384 -1.069068 4.031129 0 4.031129 
z
" style="stroke: #1f77b4"/>
    </defs>
    <g clip-path="url(#p853ddacf11)">
     <use xlink:href="#m09071d3312" x="541.373975" y="244.631329" style="fill: #1f77b4; stroke: #1f77b4"/>
    </g>
   </g>
   <g id="PathCollection_2">
    <defs>
     <path id="m91657f2bcf" d="M 0 4.031129 
C 1.069068 4.031129 2.094493 3.606384 2.850439 2.850439 
C 3.606384 2.094493 4.031129 1.069068 4.031129 0 
C 4.031129 -1.069068 3.606384 -2.094493 2.850439 -2.850439 
C 2.094493 -3.606384 1.069068 -4.031129 0 -4.031129 
C -1.069068 -4.031129 -2.094493 -3.606384 -2.850439 -2.850439 
C -3.606384 -2.094493 -4.031129 -1.069068 -4.031129 0 
C -4.031129 1.069068 -3.606384 2.094493 -2.850439 2.850439 
C -2.094493 3.606384 -1.069068 4.031129 0 4.031129 
z
" style="stroke: #ff7f0e"/>
    </defs>
    <g clip-path="url(#p853ddacf11)">
     <use xlink:href="#m91657f2bcf" x="551.806974" y="201.256603" style="fill: #ff7f0e; stroke: #ff7f0e"/>
    </g>
   </g>
   <g id="PathCollection_3">
    <defs>
     <path id="m5aa9d179e9" d="M 0 4.031129 
C 1.069068 4.031129 2.094493 3.606384 2.850439 2.850439 
C 3.606384 2.094493 4.031129 1.069068 4.031129 0 
C 4.031129 -1.069068 3.606384 -2.094493 2.850439 -2.850439 
C 2.094493 -3.606384 1.069068 -4.031129 0 -4.031129 
C -1.069068 -4.031129 -2.094493 -3.606384 -2.850439 -2.850439 
C -3.606384 -2.094493 -4.031129 -1.069068 -4.031129 0 
C -4.031129 1.069068 -3.606384 2.094493 -2.850439 2.850439 
C -2.094493 3.606384 -1.069068 4.031129 0 4.031129 
z
" style="stroke: #2ca02c"/>
    </defs>
    <g clip-path="url(#p853ddacf11)">
     <use xlink:href="#m5aa9d179e9" x="586.767642" y="142.388016" style="fill: #2ca02c; stroke: #2ca02c"/>
    </g>
   </g>
   <g id="PathCollection_4">
    <defs>
     <path id="mc72eab4708" d="M 0 4.031129 
C 1.069068 4.031129 2.094493 3.606384 2.850439 2.850439 
C 3.606384 2.094493 4.031129 1.069068 4.031129 0 
C 4.031129 -1.069068 3.606384 -2.094493 2.850439 -2.850439 
C 2.094493 -3.606384 1.069068 -4.031129 0 -4.031129 
C -1.069068 -4.031129 -2.094493 -3.606384 -2.850439 -2.850439 
C -3.606384 -2.094493 -4.031129 -1.069068 -4.031129 0 
C -4.031129 1.069068 -3.606384 2.094493 -2.850439 2.850439 
C -2.094493 3.606384 -1.069068 4.031129 0 4.031129 
z
" style="stroke: #d62728"/>
    </defs>
    <g clip-path="url(#p853ddacf11)">
     <use xlink:href="#mc72eab4708" x="586.767642" y="139.099506" style="fill: #d62728; stroke: #d62728"/>
    </g>
   </g>
   <g id="PathCollection_5">
    <defs>
     <path id="mc6657fac1b" d="M 0 4.031129 
C 1.069068 4.031129 2.094493 3.606384 2.850439 2.850439 
C 3.606384 2.094493 4.031129 1.069068 4.031129 0 
C 4.031129 -1.069068 3.606384 -2.094493 2.850439 -2.850439 
C 2.094493 -3.606384 1.069068 -4.031129 0 -4.031129 
C -1.069068 -4.031129 -2.094493 -3.606384 -2.850439 -2.850439 
C -3.606384 -2.094493 -4.031129 -1.069068 -4.031129 0 
C -4.031129 1.069068 -3.606384 2.094493 -2.850439 2.850439 
C -2.094493 3.606384 -1.069068 4.031129 0 4.031129 
z
" style="stroke: #9467bd"/>
    </defs>
    <g clip-path="url(#p853ddacf11)">
     <use xlink:href="#mc6657fac1b" x="603.808932" y="125.04959" style="fill: #9467bd; stroke: #9467bd"/>
    </g>
   </g>
   <g id="matplotlib.axis_3">
    <g id="xtick_7">
     <g id="line2d_27">
      <path d="M 434.765781 263.635781 
L 434.765781 22.318125 
" clip-path="url(#p853ddacf11)" style="fill: none; stroke: #b0b0b0; stroke-opacity: 0.15; stroke-width: 0.8; stroke-linecap: square"/>
     </g>
     <g id="line2d_28">
      <g>
       <use xlink:href="#m71f0cfe1a6" x="434.765781" y="263.635781" style="stroke: #000000; stroke-width: 0.8"/>
      </g>
     </g>
     <g id="text_19">
      <text style="font-size: 10px; font-family: 'DejaVu Sans', 'Bitstream Vera Sans', 'Computer Modern Sans Serif', 'Lucida Grande', 'Verdana', 'Geneva', 'Lucid', 'Arial', 'Helvetica', 'Avant Garde', sans-serif; text-anchor: middle" x="434.765781" y="278.233437" transform="rotate(-0 434.765781 278.233437)">0.0</text>
     </g>
    </g>
    <g id="xtick_8">
     <g id="line2d_29">
      <path d="M 473.60806 263.635781 
L 473.60806 22.318125 
" clip-path="url(#p853ddacf11)" style="fill: none; stroke: #b0b0b0; stroke-opacity: 0.15; stroke-width: 0.8; stroke-linecap: square"/>
     </g>
     <g id="line2d_30">
      <g>
       <use xlink:href="#m71f0cfe1a6" x="473.60806" y="263.635781" style="stroke: #000000; stroke-width: 0.8"/>
      </g>
     </g>
     <g id="text_20">
      <text style="font-size: 10px; font-family: 'DejaVu Sans', 'Bitstream Vera Sans', 'Computer Modern Sans Serif', 'Lucida Grande', 'Verdana', 'Geneva', 'Lucid', 'Arial', 'Helvetica', 'Avant Garde', sans-serif; text-anchor: middle" x="473.60806" y="278.233437" transform="rotate(-0 473.60806 278.233437)">2.5</text>
     </g>
    </g>
    <g id="xtick_9">
     <g id="line2d_31">
      <path d="M 512.450339 263.635781 
L 512.450339 22.318125 
" clip-path="url(#p853ddacf11)" style="fill: none; stroke: #b0b0b0; stroke-opacity: 0.15; stroke-width: 0.8; stroke-linecap: square"/>
     </g>
     <g id="line2d_32">
      <g>
       <use xlink:href="#m71f0cfe1a6" x="512.450339" y="263.635781" style="stroke: #000000; stroke-width: 0.8"/>
      </g>
     </g>
     <g id="text_21">
      <text style="font-size: 10px; font-family: 'DejaVu Sans', 'Bitstream Vera Sans', 'Computer Modern Sans Serif', 'Lucida Grande', 'Verdana', 'Geneva', 'Lucid', 'Arial', 'Helvetica', 'Avant Garde', sans-serif; text-anchor: middle" x="512.450339" y="278.233437" transform="rotate(-0 512.450339 278.233437)">5.0</text>
     </g>
    </g>
    <g id="xtick_10">
     <g id="line2d_33">
      <path d="M 551.292617 263.635781 
L 551.292617 22.318125 
" clip-path="url(#p853ddacf11)" style="fill: none; stroke: #b0b0b0; stroke-opacity: 0.15; stroke-width: 0.8; stroke-linecap: square"/>
     </g>
     <g id="line2d_34">
      <g>
       <use xlink:href="#m71f0cfe1a6" x="551.292617" y="263.635781" style="stroke: #000000; stroke-width: 0.8"/>
      </g>
     </g>
     <g id="text_22">
      <text style="font-size: 10px; font-family: 'DejaVu Sans', 'Bitstream Vera Sans', 'Computer Modern Sans Serif', 'Lucida Grande', 'Verdana', 'Geneva', 'Lucid', 'Arial', 'Helvetica', 'Avant Garde', sans-serif; text-anchor: middle" x="551.292617" y="278.233437" transform="rotate(-0 551.292617 278.233437)">7.5</text>
     </g>
    </g>
    <g id="xtick_11">
     <g id="line2d_35">
      <path d="M 590.134896 263.635781 
L 590.134896 22.318125 
" clip-path="url(#p853ddacf11)" style="fill: none; stroke: #b0b0b0; stroke-opacity: 0.15; stroke-width: 0.8; stroke-linecap: square"/>
     </g>
     <g id="line2d_36">
      <g>
       <use xlink:href="#m71f0cfe1a6" x="590.134896" y="263.635781" style="stroke: #000000; stroke-width: 0.8"/>
      </g>
     </g>
     <g id="text_23">
      <text style="font-size: 10px; font-family: 'DejaVu Sans', 'Bitstream Vera Sans', 'Computer Modern Sans Serif', 'Lucida Grande', 'Verdana', 'Geneva', 'Lucid', 'Arial', 'Helvetica', 'Avant Garde', sans-serif; text-anchor: middle" x="590.134896" y="278.233437" transform="rotate(-0 590.134896 278.233437)">10.0</text>
     </g>
    </g>
    <g id="xtick_12">
     <g id="line2d_37">
      <path d="M 628.977174 263.635781 
L 628.977174 22.318125 
" clip-path="url(#p853ddacf11)" style="fill: none; stroke: #b0b0b0; stroke-opacity: 0.15; stroke-width: 0.8; stroke-linecap: square"/>
     </g>
     <g id="line2d_38">
      <g>
       <use xlink:href="#m71f0cfe1a6" x="628.977174" y="263.635781" style="stroke: #000000; stroke-width: 0.8"/>
      </g>
     </g>
     <g id="text_24">
      <text style="font-size: 10px; font-family: 'DejaVu Sans', 'Bitstream Vera Sans', 'Computer Modern Sans Serif', 'Lucida Grande', 'Verdana', 'Geneva', 'Lucid', 'Arial', 'Helvetica', 'Avant Garde', sans-serif; text-anchor: middle" x="628.977174" y="278.233437" transform="rotate(-0 628.977174 278.233437)">12.5</text>
     </g>
    </g>
    <g id="xtick_13">
     <g id="line2d_39">
      <path d="M 667.819453 263.635781 
L 667.819453 22.318125 
" clip-path="url(#p853ddacf11)" style="fill: none; stroke: #b0b0b0; stroke-opacity: 0.15; stroke-width: 0.8; stroke-linecap: square"/>
     </g>
     <g id="line2d_40">
      <g>
       <use xlink:href="#m71f0cfe1a6" x="667.819453" y="263.635781" style="stroke: #000000; stroke-width: 0.8"/>
      </g>
     </g>
     <g id="text_25">
      <text style="font-size: 10px; font-family: 'DejaVu Sans', 'Bitstream Vera Sans', 'Computer Modern Sans Serif', 'Lucida Grande', 'Verdana', 'Geneva', 'Lucid', 'Arial', 'Helvetica', 'Avant Garde', sans-serif; text-anchor: middle" x="667.819453" y="278.233437" transform="rotate(-0 667.819453 278.233437)">15.0</text>
     </g>
    </g>
    <g id="xtick_14">
     <g id="line2d_41">
      <path d="M 706.661732 263.635781 
L 706.661732 22.318125 
" clip-path="url(#p853ddacf11)" style="fill: none; stroke: #b0b0b0; stroke-opacity: 0.15; stroke-width: 0.8; stroke-linecap: square"/>
     </g>
     <g id="line2d_42">
      <g>
       <use xlink:href="#m71f0cfe1a6" x="706.661732" y="263.635781" style="stroke: #000000; stroke-width: 0.8"/>
      </g>
     </g>
     <g id="text_26">
      <text style="font-size: 10px; font-family: 'DejaVu Sans', 'Bitstream Vera Sans', 'Computer Modern Sans Serif', 'Lucida Grande', 'Verdana', 'Geneva', 'Lucid', 'Arial', 'Helvetica', 'Avant Garde', sans-serif; text-anchor: middle" x="706.661732" y="278.233437" transform="rotate(-0 706.661732 278.233437)">17.5</text>
     </g>
    </g>
    <g id="xtick_15">
     <g id="line2d_43">
      <path d="M 745.50401 263.635781 
L 745.50401 22.318125 
" clip-path="url(#p853ddacf11)" style="fill: none; stroke: #b0b0b0; stroke-opacity: 0.15; stroke-width: 0.8; stroke-linecap: square"/>
     </g>
     <g id="line2d_44">
      <g>
       <use xlink:href="#m71f0cfe1a6" x="745.50401" y="263.635781" style="stroke: #000000; stroke-width: 0.8"/>
      </g>
     </g>
     <g id="text_27">
      <text style="font-size: 10px; font-family: 'DejaVu Sans', 'Bitstream Vera Sans', 'Computer Modern Sans Serif', 'Lucida Grande', 'Verdana', 'Geneva', 'Lucid', 'Arial', 'Helvetica', 'Avant Garde', sans-serif; text-anchor: middle" x="745.50401" y="278.233437" transform="rotate(-0 745.50401 278.233437)">20.0</text>
     </g>
    </g>
    <g id="text_28">
     <text style="font-size: 10px; font-family: 'DejaVu Sans', 'Bitstream Vera Sans', 'Computer Modern Sans Serif', 'Lucida Grande', 'Verdana', 'Geneva', 'Lucid', 'Arial', 'Helvetica', 'Avant Garde', sans-serif; text-anchor: middle" x="605.904609" y="292.234219" transform="rotate(-0 605.904609 292.234219)">Matched normal window alarm (%)</text>
    </g>
   </g>
   <g id="matplotlib.axis_4">
    <g id="ytick_8">
     <g id="line2d_45">
      <path d="M 434.765781 263.635781 
L 777.043437 263.635781 
" clip-path="url(#p853ddacf11)" style="fill: none; stroke: #b0b0b0; stroke-opacity: 0.15; stroke-width: 0.8; stroke-linecap: square"/>
     </g>
     <g id="line2d_46">
      <g>
       <use xlink:href="#m68b55c4d21" x="434.765781" y="263.635781" style="stroke: #000000; stroke-width: 0.8"/>
      </g>
     </g>
     <g id="text_29">
      <text style="font-size: 10px; font-family: 'DejaVu Sans', 'Bitstream Vera Sans', 'Computer Modern Sans Serif', 'Lucida Grande', 'Verdana', 'Geneva', 'Lucid', 'Arial', 'Helvetica', 'Avant Garde', sans-serif; text-anchor: end" x="427.765781" y="267.434609" transform="rotate(-0 427.765781 267.434609)">0</text>
     </g>
    </g>
    <g id="ytick_9">
     <g id="line2d_47">
      <path d="M 434.765781 215.37225 
L 777.043437 215.37225 
" clip-path="url(#p853ddacf11)" style="fill: none; stroke: #b0b0b0; stroke-opacity: 0.15; stroke-width: 0.8; stroke-linecap: square"/>
     </g>
     <g id="line2d_48">
      <g>
       <use xlink:href="#m68b55c4d21" x="434.765781" y="215.37225" style="stroke: #000000; stroke-width: 0.8"/>
      </g>
     </g>
     <g id="text_30">
      <text style="font-size: 10px; font-family: 'DejaVu Sans', 'Bitstream Vera Sans', 'Computer Modern Sans Serif', 'Lucida Grande', 'Verdana', 'Geneva', 'Lucid', 'Arial', 'Helvetica', 'Avant Garde', sans-serif; text-anchor: end" x="427.765781" y="219.171078" transform="rotate(-0 427.765781 219.171078)">20</text>
     </g>
    </g>
    <g id="ytick_10">
     <g id="line2d_49">
      <path d="M 434.765781 167.108719 
L 777.043437 167.108719 
" clip-path="url(#p853ddacf11)" style="fill: none; stroke: #b0b0b0; stroke-opacity: 0.15; stroke-width: 0.8; stroke-linecap: square"/>
     </g>
     <g id="line2d_50">
      <g>
       <use xlink:href="#m68b55c4d21" x="434.765781" y="167.108719" style="stroke: #000000; stroke-width: 0.8"/>
      </g>
     </g>
     <g id="text_31">
      <text style="font-size: 10px; font-family: 'DejaVu Sans', 'Bitstream Vera Sans', 'Computer Modern Sans Serif', 'Lucida Grande', 'Verdana', 'Geneva', 'Lucid', 'Arial', 'Helvetica', 'Avant Garde', sans-serif; text-anchor: end" x="427.765781" y="170.907547" transform="rotate(-0 427.765781 170.907547)">40</text>
     </g>
    </g>
    <g id="ytick_11">
     <g id="line2d_51">
      <path d="M 434.765781 118.845187 
L 777.043437 118.845187 
" clip-path="url(#p853ddacf11)" style="fill: none; stroke: #b0b0b0; stroke-opacity: 0.15; stroke-width: 0.8; stroke-linecap: square"/>
     </g>
     <g id="line2d_52">
      <g>
       <use xlink:href="#m68b55c4d21" x="434.765781" y="118.845187" style="stroke: #000000; stroke-width: 0.8"/>
      </g>
     </g>
     <g id="text_32">
      <text style="font-size: 10px; font-family: 'DejaVu Sans', 'Bitstream Vera Sans', 'Computer Modern Sans Serif', 'Lucida Grande', 'Verdana', 'Geneva', 'Lucid', 'Arial', 'Helvetica', 'Avant Garde', sans-serif; text-anchor: end" x="427.765781" y="122.644016" transform="rotate(-0 427.765781 122.644016)">60</text>
     </g>
    </g>
    <g id="ytick_12">
     <g id="line2d_53">
      <path d="M 434.765781 70.581656 
L 777.043437 70.581656 
" clip-path="url(#p853ddacf11)" style="fill: none; stroke: #b0b0b0; stroke-opacity: 0.15; stroke-width: 0.8; stroke-linecap: square"/>
     </g>
     <g id="line2d_54">
      <g>
       <use xlink:href="#m68b55c4d21" x="434.765781" y="70.581656" style="stroke: #000000; stroke-width: 0.8"/>
      </g>
     </g>
     <g id="text_33">
      <text style="font-size: 10px; font-family: 'DejaVu Sans', 'Bitstream Vera Sans', 'Computer Modern Sans Serif', 'Lucida Grande', 'Verdana', 'Geneva', 'Lucid', 'Arial', 'Helvetica', 'Avant Garde', sans-serif; text-anchor: end" x="427.765781" y="74.380484" transform="rotate(-0 427.765781 74.380484)">80</text>
     </g>
    </g>
    <g id="ytick_13">
     <g id="line2d_55">
      <path d="M 434.765781 22.318125 
L 777.043437 22.318125 
" clip-path="url(#p853ddacf11)" style="fill: none; stroke: #b0b0b0; stroke-opacity: 0.15; stroke-width: 0.8; stroke-linecap: square"/>
     </g>
     <g id="line2d_56">
      <g>
       <use xlink:href="#m68b55c4d21" x="434.765781" y="22.318125" style="stroke: #000000; stroke-width: 0.8"/>
      </g>
     </g>
     <g id="text_34">
      <text style="font-size: 10px; font-family: 'DejaVu Sans', 'Bitstream Vera Sans', 'Computer Modern Sans Serif', 'Lucida Grande', 'Verdana', 'Geneva', 'Lucid', 'Arial', 'Helvetica', 'Avant Garde', sans-serif; text-anchor: end" x="427.765781" y="26.116953" transform="rotate(-0 427.765781 26.116953)">100</text>
     </g>
    </g>
    <g id="text_35">
     <text style="font-size: 10px; font-family: 'DejaVu Sans', 'Bitstream Vera Sans', 'Computer Modern Sans Serif', 'Lucida Grande', 'Verdana', 'Geneva', 'Lucid', 'Arial', 'Helvetica', 'Avant Garde', sans-serif; text-anchor: middle" x="402.275938" y="142.976953" transform="rotate(-90 402.275938 142.976953)">Synthetic event hit (%)</text>
    </g>
   </g>
   <g id="line2d_57">
    <path d="M 669.645753 224.806613 
L 541.373975 243.82389 
L 541.373975 244.631329 
L 541.373975 244.631329 
L 541.373975 244.631329 
" clip-path="url(#p853ddacf11)" style="fill: none; stroke: #1f77b4; stroke-width: 1.5; stroke-linecap: square"/>
    <defs>
     <path id="m956810bb27" d="M 0 1.5 
C 0.397805 1.5 0.77937 1.341951 1.06066 1.06066 
C 1.341951 0.77937 1.5 0.397805 1.5 0 
C 1.5 -0.397805 1.341951 -0.77937 1.06066 -1.06066 
C 0.77937 -1.341951 0.397805 -1.5 0 -1.5 
C -0.397805 -1.5 -0.77937 -1.341951 -1.06066 -1.06066 
C -1.341951 -0.77937 -1.5 -0.397805 -1.5 0 
C -1.5 0.397805 -1.341951 0.77937 -1.06066 1.06066 
C -0.77937 1.341951 -0.397805 1.5 0 1.5 
z
" style="stroke: #1f77b4"/>
    </defs>
    <g clip-path="url(#p853ddacf11)">
     <use xlink:href="#m956810bb27" x="669.645753" y="224.806613" style="fill: #1f77b4; stroke: #1f77b4"/>
     <use xlink:href="#m956810bb27" x="541.373975" y="243.82389" style="fill: #1f77b4; stroke: #1f77b4"/>
     <use xlink:href="#m956810bb27" x="541.373975" y="244.631329" style="fill: #1f77b4; stroke: #1f77b4"/>
     <use xlink:href="#m956810bb27" x="541.373975" y="244.631329" style="fill: #1f77b4; stroke: #1f77b4"/>
     <use xlink:href="#m956810bb27" x="541.373975" y="244.631329" style="fill: #1f77b4; stroke: #1f77b4"/>
    </g>
   </g>
   <g id="line2d_58">
    <path d="M 607.948452 180.864157 
L 551.806974 198.41685 
L 551.806974 201.256603 
L 551.806974 201.256603 
L 551.806974 201.256603 
" clip-path="url(#p853ddacf11)" style="fill: none; stroke: #ff7f0e; stroke-width: 1.5; stroke-linecap: square"/>
    <defs>
     <path id="mf6345eb502" d="M 0 1.5 
C 0.397805 1.5 0.77937 1.341951 1.06066 1.06066 
C 1.341951 0.77937 1.5 0.397805 1.5 0 
C 1.5 -0.397805 1.341951 -0.77937 1.06066 -1.06066 
C 0.77937 -1.341951 0.397805 -1.5 0 -1.5 
C -0.397805 -1.5 -0.77937 -1.341951 -1.06066 -1.06066 
C -1.341951 -0.77937 -1.5 -0.397805 -1.5 0 
C -1.5 0.397805 -1.341951 0.77937 -1.06066 1.06066 
C -0.77937 1.341951 -0.397805 1.5 0 1.5 
z
" style="stroke: #ff7f0e"/>
    </defs>
    <g clip-path="url(#p853ddacf11)">
     <use xlink:href="#mf6345eb502" x="607.948452" y="180.864157" style="fill: #ff7f0e; stroke: #ff7f0e"/>
     <use xlink:href="#mf6345eb502" x="551.806974" y="198.41685" style="fill: #ff7f0e; stroke: #ff7f0e"/>
     <use xlink:href="#mf6345eb502" x="551.806974" y="201.256603" style="fill: #ff7f0e; stroke: #ff7f0e"/>
     <use xlink:href="#mf6345eb502" x="551.806974" y="201.256603" style="fill: #ff7f0e; stroke: #ff7f0e"/>
     <use xlink:href="#mf6345eb502" x="551.806974" y="201.256603" style="fill: #ff7f0e; stroke: #ff7f0e"/>
    </g>
   </g>
   <g id="line2d_59">
    <path d="M 670.907716 121.581997 
L 599.028462 135.601623 
L 586.767642 142.388016 
L 586.767642 142.388016 
L 586.767642 142.388016 
" clip-path="url(#p853ddacf11)" style="fill: none; stroke: #2ca02c; stroke-width: 1.5; stroke-linecap: square"/>
    <defs>
     <path id="m6cd160e99e" d="M 0 1.5 
C 0.397805 1.5 0.77937 1.341951 1.06066 1.06066 
C 1.341951 0.77937 1.5 0.397805 1.5 0 
C 1.5 -0.397805 1.341951 -0.77937 1.06066 -1.06066 
C 0.77937 -1.341951 0.397805 -1.5 0 -1.5 
C -0.397805 -1.5 -0.77937 -1.341951 -1.06066 -1.06066 
C -1.341951 -0.77937 -1.5 -0.397805 -1.5 0 
C -1.5 0.397805 -1.341951 0.77937 -1.06066 1.06066 
C -0.77937 1.341951 -0.397805 1.5 0 1.5 
z
" style="stroke: #2ca02c"/>
    </defs>
    <g clip-path="url(#p853ddacf11)">
     <use xlink:href="#m6cd160e99e" x="670.907716" y="121.581997" style="fill: #2ca02c; stroke: #2ca02c"/>
     <use xlink:href="#m6cd160e99e" x="599.028462" y="135.601623" style="fill: #2ca02c; stroke: #2ca02c"/>
     <use xlink:href="#m6cd160e99e" x="586.767642" y="142.388016" style="fill: #2ca02c; stroke: #2ca02c"/>
     <use xlink:href="#m6cd160e99e" x="586.767642" y="142.388016" style="fill: #2ca02c; stroke: #2ca02c"/>
     <use xlink:href="#m6cd160e99e" x="586.767642" y="142.388016" style="fill: #2ca02c; stroke: #2ca02c"/>
    </g>
   </g>
   <g id="line2d_60">
    <path d="M 651.373991 120.596577 
L 599.028462 132.673455 
L 586.767642 139.099506 
L 586.767642 139.099506 
L 586.767642 139.099506 
" clip-path="url(#p853ddacf11)" style="fill: none; stroke: #d62728; stroke-width: 1.5; stroke-linecap: square"/>
    <defs>
     <path id="m61c83f908d" d="M 0 1.5 
C 0.397805 1.5 0.77937 1.341951 1.06066 1.06066 
C 1.341951 0.77937 1.5 0.397805 1.5 0 
C 1.5 -0.397805 1.341951 -0.77937 1.06066 -1.06066 
C 0.77937 -1.341951 0.397805 -1.5 0 -1.5 
C -0.397805 -1.5 -0.77937 -1.341951 -1.06066 -1.06066 
C -1.341951 -0.77937 -1.5 -0.397805 -1.5 0 
C -1.5 0.397805 -1.341951 0.77937 -1.06066 1.06066 
C -0.77937 1.341951 -0.397805 1.5 0 1.5 
z
" style="stroke: #d62728"/>
    </defs>
    <g clip-path="url(#p853ddacf11)">
     <use xlink:href="#m61c83f908d" x="651.373991" y="120.596577" style="fill: #d62728; stroke: #d62728"/>
     <use xlink:href="#m61c83f908d" x="599.028462" y="132.673455" style="fill: #d62728; stroke: #d62728"/>
     <use xlink:href="#m61c83f908d" x="586.767642" y="139.099506" style="fill: #d62728; stroke: #d62728"/>
     <use xlink:href="#m61c83f908d" x="586.767642" y="139.099506" style="fill: #d62728; stroke: #d62728"/>
     <use xlink:href="#m61c83f908d" x="586.767642" y="139.099506" style="fill: #d62728; stroke: #d62728"/>
    </g>
   </g>
   <g id="line2d_61">
    <path d="M 765.821082 96.82294 
L 619.199867 110.487188 
L 603.808932 125.04959 
L 603.808932 125.04959 
L 603.808932 125.04959 
" clip-path="url(#p853ddacf11)" style="fill: none; stroke: #9467bd; stroke-width: 1.5; stroke-linecap: square"/>
    <defs>
     <path id="mf7ece035a3" d="M 0 1.5 
C 0.397805 1.5 0.77937 1.341951 1.06066 1.06066 
C 1.341951 0.77937 1.5 0.397805 1.5 0 
C 1.5 -0.397805 1.341951 -0.77937 1.06066 -1.06066 
C 0.77937 -1.341951 0.397805 -1.5 0 -1.5 
C -0.397805 -1.5 -0.77937 -1.341951 -1.06066 -1.06066 
C -1.341951 -0.77937 -1.5 -0.397805 -1.5 0 
C -1.5 0.397805 -1.341951 0.77937 -1.06066 1.06066 
C -0.77937 1.341951 -0.397805 1.5 0 1.5 
z
" style="stroke: #9467bd"/>
    </defs>
    <g clip-path="url(#p853ddacf11)">
     <use xlink:href="#mf7ece035a3" x="765.821082" y="96.82294" style="fill: #9467bd; stroke: #9467bd"/>
     <use xlink:href="#mf7ece035a3" x="619.199867" y="110.487188" style="fill: #9467bd; stroke: #9467bd"/>
     <use xlink:href="#mf7ece035a3" x="603.808932" y="125.04959" style="fill: #9467bd; stroke: #9467bd"/>
     <use xlink:href="#mf7ece035a3" x="603.808932" y="125.04959" style="fill: #9467bd; stroke: #9467bd"/>
     <use xlink:href="#mf7ece035a3" x="603.808932" y="125.04959" style="fill: #9467bd; stroke: #9467bd"/>
    </g>
   </g>
   <g id="patch_6">
    <path d="M 434.765781 263.635781 
L 434.765781 22.318125 
" style="fill: none; stroke: #000000; stroke-width: 0.8; stroke-linejoin: miter; stroke-linecap: square"/>
   </g>
   <g id="patch_7">
    <path d="M 434.765781 263.635781 
L 777.043437 263.635781 
" style="fill: none; stroke: #000000; stroke-width: 0.8; stroke-linejoin: miter; stroke-linecap: square"/>
   </g>
   <g id="text_36">
    <text style="font-size: 12px; font-family: 'DejaVu Sans', 'Bitstream Vera Sans', 'Computer Modern Sans Serif', 'Lucida Grande', 'Verdana', 'Geneva', 'Lucid', 'Arial', 'Helvetica', 'Avant Garde', sans-serif; text-anchor: middle" x="605.904609" y="16.318125" transform="rotate(-0 605.904609 16.318125)">Fixed normal calibration quantiles; large = q99</text>
   </g>
   <g id="legend_2">
    <g id="line2d_62">
     <path d="M 611.566875 35.416562 
L 621.566875 35.416562 
L 631.566875 35.416562 
" style="fill: none; stroke: #1f77b4; stroke-width: 1.5; stroke-linecap: square"/>
     <g>
      <use xlink:href="#m956810bb27" x="621.566875" y="35.416562" style="fill: #1f77b4; stroke: #1f77b4"/>
     </g>
    </g>
    <g id="text_37">
     <text style="font-size: 10px; font-family: 'DejaVu Sans', 'Bitstream Vera Sans', 'Computer Modern Sans Serif', 'Lucida Grande', 'Verdana', 'Geneva', 'Lucid', 'Arial', 'Helvetica', 'Avant Garde', sans-serif; text-anchor: start" x="639.566875" y="38.916562" transform="rotate(-0 639.566875 38.916562)">B0</text>
    </g>
    <g id="line2d_63">
     <path d="M 611.566875 50.417344 
L 621.566875 50.417344 
L 631.566875 50.417344 
" style="fill: none; stroke: #ff7f0e; stroke-width: 1.5; stroke-linecap: square"/>
     <g>
      <use xlink:href="#mf6345eb502" x="621.566875" y="50.417344" style="fill: #ff7f0e; stroke: #ff7f0e"/>
     </g>
    </g>
    <g id="text_38">
     <text style="font-size: 10px; font-family: 'DejaVu Sans', 'Bitstream Vera Sans', 'Computer Modern Sans Serif', 'Lucida Grande', 'Verdana', 'Geneva', 'Lucid', 'Arial', 'Helvetica', 'Avant Garde', sans-serif; text-anchor: start" x="639.566875" y="53.917344" transform="rotate(-0 639.566875 53.917344)">B1</text>
    </g>
    <g id="line2d_64">
     <path d="M 672.790313 35.416562 
L 682.790313 35.416562 
L 692.790313 35.416562 
" style="fill: none; stroke: #2ca02c; stroke-width: 1.5; stroke-linecap: square"/>
     <g>
      <use xlink:href="#m6cd160e99e" x="682.790313" y="35.416562" style="fill: #2ca02c; stroke: #2ca02c"/>
     </g>
    </g>
    <g id="text_39">
     <text style="font-size: 10px; font-family: 'DejaVu Sans', 'Bitstream Vera Sans', 'Computer Modern Sans Serif', 'Lucida Grande', 'Verdana', 'Geneva', 'Lucid', 'Arial', 'Helvetica', 'Avant Garde', sans-serif; text-anchor: start" x="700.790313" y="38.916562" transform="rotate(-0 700.790313 38.916562)">B2</text>
    </g>
    <g id="line2d_65">
     <path d="M 672.790313 50.417344 
L 682.790313 50.417344 
L 692.790313 50.417344 
" style="fill: none; stroke: #d62728; stroke-width: 1.5; stroke-linecap: square"/>
     <g>
      <use xlink:href="#m61c83f908d" x="682.790313" y="50.417344" style="fill: #d62728; stroke: #d62728"/>
     </g>
    </g>
    <g id="text_40">
     <text style="font-size: 10px; font-family: 'DejaVu Sans', 'Bitstream Vera Sans', 'Computer Modern Sans Serif', 'Lucida Grande', 'Verdana', 'Geneva', 'Lucid', 'Arial', 'Helvetica', 'Avant Garde', sans-serif; text-anchor: start" x="700.790313" y="53.917344" transform="rotate(-0 700.790313 53.917344)">B3</text>
    </g>
    <g id="line2d_66">
     <path d="M 734.01375 35.416562 
L 744.01375 35.416562 
L 754.01375 35.416562 
" style="fill: none; stroke: #9467bd; stroke-width: 1.5; stroke-linecap: square"/>
     <g>
      <use xlink:href="#mf7ece035a3" x="744.01375" y="35.416562" style="fill: #9467bd; stroke: #9467bd"/>
     </g>
    </g>
    <g id="text_41">
     <text style="font-size: 10px; font-family: 'DejaVu Sans', 'Bitstream Vera Sans', 'Computer Modern Sans Serif', 'Lucida Grande', 'Verdana', 'Geneva', 'Lucid', 'Arial', 'Helvetica', 'Avant Garde', sans-serif; text-anchor: start" x="762.01375" y="38.916562" transform="rotate(-0 762.01375 38.916562)">P</text>
    </g>
   </g>
  </g>
 </g>
 <defs>
  <clipPath id="p76b1b1481e">
   <rect x="40.925781" y="22.318125" width="342.277656" height="241.317656"/>
  </clipPath>
  <clipPath id="p853ddacf11">
   <rect x="434.765781" y="22.318125" width="342.277656" height="241.317656"/>
  </clipPath>
 </defs>
</svg>
